<mxfile host="app.diagrams.net" modified="2021-07-11T16:08:25.053Z" agent="5.0 (Windows NT 10.0; Win64; x64) AppleWebKit/537.36 (KHTML, like Gecko) Chrome/91.0.4472.114 Safari/537.36" etag="z-FOJB5RYBfAh4yUw2Ud" version="14.8.5" type="github">
  <diagram id="Lsnexxyc17uVGk2usu4U" name="Page-1">
    <mxGraphModel dx="2496" dy="1094" grid="0" gridSize="10" guides="1" tooltips="1" connect="1" arrows="1" fold="1" page="1" pageScale="1" pageWidth="1400" pageHeight="850" math="0" shadow="0">
      <root>
        <mxCell id="0" />
        <mxCell id="1" parent="0" />
        <mxCell id="WvhVtql0bHE9y6AdPt9n-1" value="S_READ_STATUS&lt;br&gt;1" style="ellipse;whiteSpace=wrap;html=1;aspect=fixed;" parent="1" vertex="1">
          <mxGeometry x="274.5" y="111" width="120" height="120" as="geometry" />
        </mxCell>
        <mxCell id="WvhVtql0bHE9y6AdPt9n-11" style="edgeStyle=orthogonalEdgeStyle;rounded=0;orthogonalLoop=1;jettySize=auto;html=1;entryX=0.5;entryY=0;entryDx=0;entryDy=0;" parent="1" source="WvhVtql0bHE9y6AdPt9n-2" target="WvhVtql0bHE9y6AdPt9n-6" edge="1">
          <mxGeometry relative="1" as="geometry" />
        </mxCell>
        <mxCell id="WvhVtql0bHE9y6AdPt9n-2" value="S_READ_CONFIG&lt;br&gt;2" style="ellipse;whiteSpace=wrap;html=1;aspect=fixed;" parent="1" vertex="1">
          <mxGeometry x="690" y="163" width="114" height="114" as="geometry" />
        </mxCell>
        <mxCell id="WvhVtql0bHE9y6AdPt9n-3" value="" style="endArrow=classic;html=1;entryX=0;entryY=0.388;entryDx=0;entryDy=0;entryPerimeter=0;exitX=1;exitY=0.5;exitDx=0;exitDy=0;" parent="1" source="WvhVtql0bHE9y6AdPt9n-1" target="WvhVtql0bHE9y6AdPt9n-2" edge="1">
          <mxGeometry width="50" height="50" relative="1" as="geometry">
            <mxPoint x="395" y="192" as="sourcePoint" />
            <mxPoint x="541" y="93" as="targetPoint" />
          </mxGeometry>
        </mxCell>
        <mxCell id="WvhVtql0bHE9y6AdPt9n-4" value="input_ready" style="text;html=1;strokeColor=none;fillColor=none;align=center;verticalAlign=middle;whiteSpace=wrap;rounded=0;" parent="1" vertex="1">
          <mxGeometry x="506.5" y="157" width="64" height="28" as="geometry" />
        </mxCell>
        <mxCell id="WvhVtql0bHE9y6AdPt9n-5" value="" style="curved=1;endArrow=classic;html=1;exitX=0.5;exitY=1;exitDx=0;exitDy=0;entryX=1;entryY=1;entryDx=0;entryDy=0;" parent="1" source="WvhVtql0bHE9y6AdPt9n-1" target="0ifkO_EFKVS7rbleS3C3-1" edge="1">
          <mxGeometry width="50" height="50" relative="1" as="geometry">
            <mxPoint x="308" y="350" as="sourcePoint" />
            <mxPoint x="151" y="152" as="targetPoint" />
            <Array as="points">
              <mxPoint x="308" y="300" />
            </Array>
          </mxGeometry>
        </mxCell>
        <mxCell id="WvhVtql0bHE9y6AdPt9n-6" value="S_READ_A&lt;br&gt;3" style="ellipse;whiteSpace=wrap;html=1;aspect=fixed;" parent="1" vertex="1">
          <mxGeometry x="817" y="302" width="80" height="80" as="geometry" />
        </mxCell>
        <mxCell id="WvhVtql0bHE9y6AdPt9n-8" value="" style="curved=1;endArrow=classic;html=1;exitX=0.225;exitY=0.075;exitDx=0;exitDy=0;entryX=1;entryY=0.5;entryDx=0;entryDy=0;exitPerimeter=0;" parent="1" source="WvhVtql0bHE9y6AdPt9n-2" target="0ifkO_EFKVS7rbleS3C3-1" edge="1">
          <mxGeometry width="50" height="50" relative="1" as="geometry">
            <mxPoint x="832" y="187" as="sourcePoint" />
            <mxPoint x="882" y="137" as="targetPoint" />
            <Array as="points">
              <mxPoint x="416" y="60" />
            </Array>
          </mxGeometry>
        </mxCell>
        <mxCell id="WvhVtql0bHE9y6AdPt9n-9" value="size_mismatch_error" style="text;html=1;strokeColor=none;fillColor=none;align=center;verticalAlign=middle;whiteSpace=wrap;rounded=0;" parent="1" vertex="1">
          <mxGeometry x="419" y="72" width="148" height="20" as="geometry" />
        </mxCell>
        <mxCell id="WvhVtql0bHE9y6AdPt9n-10" value="S_READ_B&lt;br&gt;5" style="ellipse;whiteSpace=wrap;html=1;aspect=fixed;" parent="1" vertex="1">
          <mxGeometry x="737" y="419" width="80" height="80" as="geometry" />
        </mxCell>
        <mxCell id="tEf8-afpCngk91MGsSXQ-3" style="edgeStyle=orthogonalEdgeStyle;rounded=0;orthogonalLoop=1;jettySize=auto;html=1;entryX=1;entryY=0.5;entryDx=0;entryDy=0;" parent="1" source="WvhVtql0bHE9y6AdPt9n-13" target="tEf8-afpCngk91MGsSXQ-1" edge="1">
          <mxGeometry relative="1" as="geometry" />
        </mxCell>
        <mxCell id="WvhVtql0bHE9y6AdPt9n-13" value="S_WAIT_FOR&lt;br&gt;_MULT&lt;br&gt;7" style="ellipse;whiteSpace=wrap;html=1;aspect=fixed;" parent="1" vertex="1">
          <mxGeometry x="563" y="419" width="80" height="80" as="geometry" />
        </mxCell>
        <mxCell id="WvhVtql0bHE9y6AdPt9n-14" value="" style="curved=1;endArrow=classic;html=1;exitX=0.725;exitY=0.05;exitDx=0;exitDy=0;exitPerimeter=0;entryX=1;entryY=0.5;entryDx=0;entryDy=0;" parent="1" source="WvhVtql0bHE9y6AdPt9n-6" target="WvhVtql0bHE9y6AdPt9n-6" edge="1">
          <mxGeometry width="50" height="50" relative="1" as="geometry">
            <mxPoint x="952" y="289" as="sourcePoint" />
            <mxPoint x="1002" y="239" as="targetPoint" />
            <Array as="points">
              <mxPoint x="952" y="239" />
            </Array>
          </mxGeometry>
        </mxCell>
        <mxCell id="WvhVtql0bHE9y6AdPt9n-15" value="S_EXTEND_A&lt;br&gt;4" style="ellipse;whiteSpace=wrap;html=1;aspect=fixed;" parent="1" vertex="1">
          <mxGeometry x="972" y="353" width="100" height="100" as="geometry" />
        </mxCell>
        <mxCell id="WvhVtql0bHE9y6AdPt9n-16" value="" style="endArrow=classic;html=1;exitX=1;exitY=1;exitDx=0;exitDy=0;entryX=0;entryY=0.5;entryDx=0;entryDy=0;" parent="1" source="WvhVtql0bHE9y6AdPt9n-6" target="WvhVtql0bHE9y6AdPt9n-15" edge="1">
          <mxGeometry width="50" height="50" relative="1" as="geometry">
            <mxPoint x="903" y="418" as="sourcePoint" />
            <mxPoint x="953" y="368" as="targetPoint" />
          </mxGeometry>
        </mxCell>
        <mxCell id="WvhVtql0bHE9y6AdPt9n-17" value="A_block_finished" style="text;html=1;strokeColor=none;fillColor=none;align=center;verticalAlign=middle;whiteSpace=wrap;rounded=0;" parent="1" vertex="1">
          <mxGeometry x="860" y="388" width="100" height="30" as="geometry" />
        </mxCell>
        <mxCell id="WvhVtql0bHE9y6AdPt9n-20" value="" style="endArrow=classic;html=1;exitX=0.213;exitY=0.938;exitDx=0;exitDy=0;exitPerimeter=0;entryX=1;entryY=0.5;entryDx=0;entryDy=0;" parent="1" source="WvhVtql0bHE9y6AdPt9n-15" target="WvhVtql0bHE9y6AdPt9n-10" edge="1">
          <mxGeometry width="50" height="50" relative="1" as="geometry">
            <mxPoint x="937" y="549" as="sourcePoint" />
            <mxPoint x="987" y="499" as="targetPoint" />
          </mxGeometry>
        </mxCell>
        <mxCell id="WvhVtql0bHE9y6AdPt9n-21" value="S_EXTEND_B&lt;br&gt;6" style="ellipse;whiteSpace=wrap;html=1;aspect=fixed;" parent="1" vertex="1">
          <mxGeometry x="806" y="548" width="100" height="100" as="geometry" />
        </mxCell>
        <mxCell id="WvhVtql0bHE9y6AdPt9n-22" value="" style="curved=1;endArrow=classic;html=1;exitX=1;exitY=0;exitDx=0;exitDy=0;entryX=0;entryY=0;entryDx=0;entryDy=0;" parent="1" source="WvhVtql0bHE9y6AdPt9n-10" target="WvhVtql0bHE9y6AdPt9n-10" edge="1">
          <mxGeometry width="50" height="50" relative="1" as="geometry">
            <mxPoint x="685" y="579" as="sourcePoint" />
            <mxPoint x="707" y="530" as="targetPoint" />
            <Array as="points">
              <mxPoint x="793" y="341" />
            </Array>
          </mxGeometry>
        </mxCell>
        <mxCell id="WvhVtql0bHE9y6AdPt9n-23" value="" style="endArrow=classic;html=1;exitX=1;exitY=1;exitDx=0;exitDy=0;entryX=0.388;entryY=0;entryDx=0;entryDy=0;entryPerimeter=0;" parent="1" source="WvhVtql0bHE9y6AdPt9n-10" target="WvhVtql0bHE9y6AdPt9n-21" edge="1">
          <mxGeometry width="50" height="50" relative="1" as="geometry">
            <mxPoint x="906" y="564" as="sourcePoint" />
            <mxPoint x="956" y="514" as="targetPoint" />
          </mxGeometry>
        </mxCell>
        <mxCell id="WvhVtql0bHE9y6AdPt9n-24" value="B_block_finished" style="text;html=1;strokeColor=none;fillColor=none;align=center;verticalAlign=middle;whiteSpace=wrap;rounded=0;" parent="1" vertex="1">
          <mxGeometry x="830" y="496" width="100" height="20" as="geometry" />
        </mxCell>
        <mxCell id="WvhVtql0bHE9y6AdPt9n-27" value="B_stb = 1&lt;br&gt;A_stb = 1" style="text;html=1;strokeColor=none;fillColor=none;align=center;verticalAlign=middle;whiteSpace=wrap;rounded=0;" parent="1" vertex="1">
          <mxGeometry x="556" y="491" width="97" height="50" as="geometry" />
        </mxCell>
        <mxCell id="WvhVtql0bHE9y6AdPt9n-30" value="" style="endArrow=classic;html=1;exitX=0;exitY=0.5;exitDx=0;exitDy=0;entryX=1;entryY=1;entryDx=0;entryDy=0;" parent="1" source="WvhVtql0bHE9y6AdPt9n-21" target="WvhVtql0bHE9y6AdPt9n-13" edge="1">
          <mxGeometry width="50" height="50" relative="1" as="geometry">
            <mxPoint x="661" y="613" as="sourcePoint" />
            <mxPoint x="711" y="563" as="targetPoint" />
          </mxGeometry>
        </mxCell>
        <mxCell id="WvhVtql0bHE9y6AdPt9n-31" value="S_FINISH&lt;br&gt;12" style="ellipse;whiteSpace=wrap;html=1;aspect=fixed;" parent="1" vertex="1">
          <mxGeometry x="75" y="419" width="80" height="80" as="geometry" />
        </mxCell>
        <mxCell id="WvhVtql0bHE9y6AdPt9n-34" value="S_PREPARE_FOR&lt;br&gt;_WRITE&lt;br&gt;9" style="ellipse;whiteSpace=wrap;html=1;aspect=fixed;" parent="1" vertex="1">
          <mxGeometry x="415.5" y="570" width="123" height="123" as="geometry" />
        </mxCell>
        <mxCell id="WvhVtql0bHE9y6AdPt9n-37" value="clear_sum_register" style="text;html=1;strokeColor=none;fillColor=none;align=center;verticalAlign=middle;whiteSpace=wrap;rounded=0;" parent="1" vertex="1">
          <mxGeometry x="259" y="781" width="121" height="42" as="geometry" />
        </mxCell>
        <mxCell id="WvhVtql0bHE9y6AdPt9n-39" value="S_WRITE&lt;br&gt;10" style="ellipse;whiteSpace=wrap;html=1;aspect=fixed;" parent="1" vertex="1">
          <mxGeometry x="496" y="728" width="80" height="80" as="geometry" />
        </mxCell>
        <mxCell id="WvhVtql0bHE9y6AdPt9n-40" value="" style="endArrow=classic;html=1;entryX=0.5;entryY=0;entryDx=0;entryDy=0;exitX=0.798;exitY=0.923;exitDx=0;exitDy=0;exitPerimeter=0;" parent="1" source="WvhVtql0bHE9y6AdPt9n-34" target="WvhVtql0bHE9y6AdPt9n-39" edge="1">
          <mxGeometry width="50" height="50" relative="1" as="geometry">
            <mxPoint x="484" y="688" as="sourcePoint" />
            <mxPoint x="661" y="658" as="targetPoint" />
          </mxGeometry>
        </mxCell>
        <mxCell id="WvhVtql0bHE9y6AdPt9n-42" value="" style="curved=1;endArrow=classic;html=1;exitX=1;exitY=0;exitDx=0;exitDy=0;entryX=0.938;entryY=0.775;entryDx=0;entryDy=0;entryPerimeter=0;" parent="1" source="WvhVtql0bHE9y6AdPt9n-39" target="WvhVtql0bHE9y6AdPt9n-39" edge="1">
          <mxGeometry width="50" height="50" relative="1" as="geometry">
            <mxPoint x="636" y="750" as="sourcePoint" />
            <mxPoint x="686" y="700" as="targetPoint" />
            <Array as="points">
              <mxPoint x="649" y="750" />
            </Array>
          </mxGeometry>
        </mxCell>
        <mxCell id="WvhVtql0bHE9y6AdPt9n-43" value="S_PREPARE_TO_READ&lt;br&gt;11" style="ellipse;whiteSpace=wrap;html=1;aspect=fixed;" parent="1" vertex="1">
          <mxGeometry x="244.5" y="631.5" width="150" height="150" as="geometry" />
        </mxCell>
        <mxCell id="WvhVtql0bHE9y6AdPt9n-44" value="!(write_finished)" style="text;html=1;strokeColor=none;fillColor=none;align=center;verticalAlign=middle;whiteSpace=wrap;rounded=0;" parent="1" vertex="1">
          <mxGeometry x="600" y="747" width="114" height="20" as="geometry" />
        </mxCell>
        <mxCell id="WvhVtql0bHE9y6AdPt9n-46" value="" style="endArrow=classic;html=1;exitX=0.025;exitY=0.4;exitDx=0;exitDy=0;exitPerimeter=0;entryX=0.988;entryY=0.663;entryDx=0;entryDy=0;entryPerimeter=0;" parent="1" source="WvhVtql0bHE9y6AdPt9n-39" target="WvhVtql0bHE9y6AdPt9n-43" edge="1">
          <mxGeometry width="50" height="50" relative="1" as="geometry">
            <mxPoint x="363" y="682" as="sourcePoint" />
            <mxPoint x="413" y="632" as="targetPoint" />
          </mxGeometry>
        </mxCell>
        <mxCell id="WvhVtql0bHE9y6AdPt9n-47" value="" style="endArrow=classic;html=1;exitX=0;exitY=0.5;exitDx=0;exitDy=0;entryX=0.5;entryY=1;entryDx=0;entryDy=0;" parent="1" source="WvhVtql0bHE9y6AdPt9n-43" target="WvhVtql0bHE9y6AdPt9n-31" edge="1">
          <mxGeometry width="50" height="50" relative="1" as="geometry">
            <mxPoint x="323" y="638" as="sourcePoint" />
            <mxPoint x="373" y="588" as="targetPoint" />
          </mxGeometry>
        </mxCell>
        <mxCell id="WvhVtql0bHE9y6AdPt9n-48" value="finished&amp;nbsp;" style="text;html=1;strokeColor=none;fillColor=none;align=center;verticalAlign=middle;whiteSpace=wrap;rounded=0;" parent="1" vertex="1">
          <mxGeometry x="90.5" y="584" width="107" height="28" as="geometry" />
        </mxCell>
        <mxCell id="WvhVtql0bHE9y6AdPt9n-49" value="statusWrite = 1" style="text;html=1;strokeColor=none;fillColor=none;align=center;verticalAlign=middle;whiteSpace=wrap;rounded=0;" parent="1" vertex="1">
          <mxGeometry x="16" y="399" width="105" height="20" as="geometry" />
        </mxCell>
        <mxCell id="WvhVtql0bHE9y6AdPt9n-52" value="" style="curved=1;endArrow=classic;html=1;exitX=0.5;exitY=0;exitDx=0;exitDy=0;entryX=0.268;entryY=0.94;entryDx=0;entryDy=0;entryPerimeter=0;" parent="1" source="WvhVtql0bHE9y6AdPt9n-31" target="0ifkO_EFKVS7rbleS3C3-1" edge="1">
          <mxGeometry width="50" height="50" relative="1" as="geometry">
            <mxPoint x="346" y="449" as="sourcePoint" />
            <mxPoint x="208" y="264" as="targetPoint" />
            <Array as="points">
              <mxPoint x="76" y="264" />
            </Array>
          </mxGeometry>
        </mxCell>
        <mxCell id="WvhVtql0bHE9y6AdPt9n-53" value="mult_ack" style="text;html=1;strokeColor=none;fillColor=none;align=center;verticalAlign=middle;whiteSpace=wrap;rounded=0;" parent="1" vertex="1">
          <mxGeometry x="23" y="249" width="73" height="35" as="geometry" />
        </mxCell>
        <mxCell id="WvhVtql0bHE9y6AdPt9n-54" value="&lt;font&gt;!(input_ready)&lt;/font&gt;" style="text;html=1;strokeColor=none;fillColor=none;align=center;verticalAlign=middle;whiteSpace=wrap;rounded=0;fontColor=#000000;" parent="1" vertex="1">
          <mxGeometry x="251" y="249" width="106" height="31" as="geometry" />
        </mxCell>
        <mxCell id="WvhVtql0bHE9y6AdPt9n-56" value="" style="curved=1;endArrow=classic;html=1;exitX=0.447;exitY=0.019;exitDx=0;exitDy=0;exitPerimeter=0;entryX=0;entryY=0;entryDx=0;entryDy=0;" parent="1" source="WvhVtql0bHE9y6AdPt9n-43" target="WvhVtql0bHE9y6AdPt9n-6" edge="1">
          <mxGeometry width="50" height="50" relative="1" as="geometry">
            <mxPoint x="341.5" y="559" as="sourcePoint" />
            <mxPoint x="685" y="274" as="targetPoint" />
            <Array as="points">
              <mxPoint x="320" y="552" />
              <mxPoint x="450" y="269" />
            </Array>
          </mxGeometry>
        </mxCell>
        <mxCell id="naLMfVqCQpOulkHyiC6N-7" value="" style="curved=1;endArrow=classic;html=1;entryX=0;entryY=1;entryDx=0;entryDy=0;" parent="1" edge="1" target="WvhVtql0bHE9y6AdPt9n-10">
          <mxGeometry width="50" height="50" relative="1" as="geometry">
            <mxPoint x="532" y="606" as="sourcePoint" />
            <mxPoint x="549" y="648" as="targetPoint" />
            <Array as="points" />
          </mxGeometry>
        </mxCell>
        <mxCell id="naLMfVqCQpOulkHyiC6N-8" value="row_read_finished_A" style="text;html=1;strokeColor=none;fillColor=none;align=center;verticalAlign=middle;whiteSpace=wrap;rounded=0;" parent="1" vertex="1">
          <mxGeometry x="513" y="685" width="140" height="20" as="geometry" />
        </mxCell>
        <mxCell id="naLMfVqCQpOulkHyiC6N-10" value="write_finished" style="text;html=1;strokeColor=none;fillColor=none;align=center;verticalAlign=middle;whiteSpace=wrap;rounded=0;" parent="1" vertex="1">
          <mxGeometry x="439" y="721" width="40" height="20" as="geometry" />
        </mxCell>
        <mxCell id="0ifkO_EFKVS7rbleS3C3-1" value="S_IDLE&lt;br&gt;0" style="ellipse;whiteSpace=wrap;html=1;aspect=fixed;fontColor=#000000;" parent="1" vertex="1">
          <mxGeometry x="92" y="71.79411764705878" width="80" height="80" as="geometry" />
        </mxCell>
        <mxCell id="0ifkO_EFKVS7rbleS3C3-2" value="" style="endArrow=classic;html=1;fontColor=#000000;exitX=1;exitY=0.5;exitDx=0;exitDy=0;entryX=0;entryY=0.5;entryDx=0;entryDy=0;" parent="1" source="0ifkO_EFKVS7rbleS3C3-1" target="WvhVtql0bHE9y6AdPt9n-1" edge="1">
          <mxGeometry width="50" height="50" relative="1" as="geometry">
            <mxPoint x="244.5" y="121.64705882352939" as="sourcePoint" />
            <mxPoint x="294.5" y="71.64705882352939" as="targetPoint" />
          </mxGeometry>
        </mxCell>
        <mxCell id="0ifkO_EFKVS7rbleS3C3-3" value="start" style="text;html=1;strokeColor=none;fillColor=none;align=center;verticalAlign=middle;whiteSpace=wrap;rounded=0;fontColor=#000000;" parent="1" vertex="1">
          <mxGeometry x="203.5" y="111.82352941176475" width="40" height="20" as="geometry" />
        </mxCell>
        <mxCell id="0ifkO_EFKVS7rbleS3C3-4" value="" style="curved=1;endArrow=classic;html=1;exitX=0;exitY=0;exitDx=0;exitDy=0;entryX=1;entryY=0;entryDx=0;entryDy=0;" parent="1" source="0ifkO_EFKVS7rbleS3C3-1" target="0ifkO_EFKVS7rbleS3C3-1" edge="1">
          <mxGeometry width="50" height="50" relative="1" as="geometry">
            <mxPoint x="167.5" y="36" as="sourcePoint" />
            <mxPoint x="189.50000000000637" y="72" as="targetPoint" />
            <Array as="points">
              <mxPoint x="132" y="8" />
            </Array>
          </mxGeometry>
        </mxCell>
        <mxCell id="0ifkO_EFKVS7rbleS3C3-6" value="" style="curved=1;endArrow=classic;html=1;fontColor=#000000;exitX=1;exitY=0;exitDx=0;exitDy=0;entryX=1;entryY=0.5;entryDx=0;entryDy=0;" parent="1" source="WvhVtql0bHE9y6AdPt9n-31" target="WvhVtql0bHE9y6AdPt9n-31" edge="1">
          <mxGeometry width="50" height="50" relative="1" as="geometry">
            <mxPoint x="172" y="428.1470588235294" as="sourcePoint" />
            <mxPoint x="222" y="378.1470588235294" as="targetPoint" />
            <Array as="points">
              <mxPoint x="224" y="387" />
            </Array>
          </mxGeometry>
        </mxCell>
        <mxCell id="tEf8-afpCngk91MGsSXQ-4" style="edgeStyle=orthogonalEdgeStyle;rounded=0;orthogonalLoop=1;jettySize=auto;html=1;" parent="1" source="tEf8-afpCngk91MGsSXQ-1" edge="1">
          <mxGeometry relative="1" as="geometry">
            <mxPoint x="484" y="569.0000915527344" as="targetPoint" />
          </mxGeometry>
        </mxCell>
        <mxCell id="tEf8-afpCngk91MGsSXQ-1" value="S_WAIT_FOR&lt;br&gt;_ADD&lt;br&gt;8" style="ellipse;whiteSpace=wrap;html=1;aspect=fixed;" parent="1" vertex="1">
          <mxGeometry x="444" y="419" width="80" height="80" as="geometry" />
        </mxCell>
        <mxCell id="tEf8-afpCngk91MGsSXQ-5" value="" style="curved=1;endArrow=classic;html=1;" parent="1" edge="1">
          <mxGeometry width="50" height="50" relative="1" as="geometry">
            <mxPoint x="630" y="429" as="sourcePoint" />
            <mxPoint x="641" y="443" as="targetPoint" />
            <Array as="points">
              <mxPoint x="641" y="406" />
              <mxPoint x="691" y="416" />
              <mxPoint x="686" y="443" />
            </Array>
          </mxGeometry>
        </mxCell>
        <mxCell id="tEf8-afpCngk91MGsSXQ-6" value="" style="curved=1;endArrow=classic;html=1;fontColor=#000000;exitX=0.415;exitY=-0.005;exitDx=0;exitDy=0;entryX=1;entryY=0.5;entryDx=0;entryDy=0;exitPerimeter=0;" parent="1" source="tEf8-afpCngk91MGsSXQ-1" edge="1">
          <mxGeometry width="50" height="50" relative="1" as="geometry">
            <mxPoint x="478.28427124746213" y="396.71572875253787" as="sourcePoint" />
            <mxPoint x="490" y="425" as="targetPoint" />
            <Array as="points">
              <mxPoint x="477" y="382" />
              <mxPoint x="508" y="398" />
            </Array>
          </mxGeometry>
        </mxCell>
        <mxCell id="GlAPdgY2d9bUipPPxTtd-1" value="!start" style="text;html=1;strokeColor=none;fillColor=none;align=center;verticalAlign=middle;whiteSpace=wrap;rounded=0;" vertex="1" parent="1">
          <mxGeometry x="109.5" y="15" width="45" height="28" as="geometry" />
        </mxCell>
        <mxCell id="GlAPdgY2d9bUipPPxTtd-2" value="A_block_not_finished" style="text;html=1;strokeColor=none;fillColor=none;align=center;verticalAlign=middle;whiteSpace=wrap;rounded=0;" vertex="1" parent="1">
          <mxGeometry x="897" y="257" width="100" height="30" as="geometry" />
        </mxCell>
        <mxCell id="GlAPdgY2d9bUipPPxTtd-4" value="B_block_not_finished" style="text;html=1;strokeColor=none;fillColor=none;align=center;verticalAlign=middle;whiteSpace=wrap;rounded=0;" vertex="1" parent="1">
          <mxGeometry x="722" y="368" width="100" height="20" as="geometry" />
        </mxCell>
        <mxCell id="GlAPdgY2d9bUipPPxTtd-5" value="result_&lt;br&gt;ready_&lt;br&gt;mult" style="text;html=1;strokeColor=none;fillColor=none;align=center;verticalAlign=middle;whiteSpace=wrap;rounded=0;" vertex="1" parent="1">
          <mxGeometry x="514" y="401" width="53" height="52" as="geometry" />
        </mxCell>
        <mxCell id="GlAPdgY2d9bUipPPxTtd-6" value="!result_&lt;br&gt;ready_&lt;br&gt;mult" style="text;html=1;strokeColor=none;fillColor=none;align=center;verticalAlign=middle;whiteSpace=wrap;rounded=0;" vertex="1" parent="1">
          <mxGeometry x="660" y="363" width="45" height="60" as="geometry" />
        </mxCell>
        <mxCell id="GlAPdgY2d9bUipPPxTtd-7" value="!result_ready_add" style="text;html=1;strokeColor=none;fillColor=none;align=center;verticalAlign=middle;whiteSpace=wrap;rounded=0;" vertex="1" parent="1">
          <mxGeometry x="433" y="362" width="102" height="26" as="geometry" />
        </mxCell>
        <mxCell id="GlAPdgY2d9bUipPPxTtd-8" value="result_ready_add" style="text;html=1;strokeColor=none;fillColor=none;align=center;verticalAlign=middle;whiteSpace=wrap;rounded=0;" vertex="1" parent="1">
          <mxGeometry x="385" y="516" width="102" height="26" as="geometry" />
        </mxCell>
        <mxCell id="GlAPdgY2d9bUipPPxTtd-10" value="!row_read_finished_A" style="text;html=1;strokeColor=none;fillColor=none;align=center;verticalAlign=middle;whiteSpace=wrap;rounded=0;" vertex="1" parent="1">
          <mxGeometry x="587" y="570" width="140" height="20" as="geometry" />
        </mxCell>
        <mxCell id="GlAPdgY2d9bUipPPxTtd-13" value="!finished&amp;nbsp;" style="text;html=1;strokeColor=none;fillColor=none;align=center;verticalAlign=middle;whiteSpace=wrap;rounded=0;" vertex="1" parent="1">
          <mxGeometry x="271" y="468" width="107" height="28" as="geometry" />
        </mxCell>
        <mxCell id="GlAPdgY2d9bUipPPxTtd-14" value="!mult_ack" style="text;html=1;strokeColor=none;fillColor=none;align=center;verticalAlign=middle;whiteSpace=wrap;rounded=0;" vertex="1" parent="1">
          <mxGeometry x="155" y="388" width="73" height="35" as="geometry" />
        </mxCell>
      </root>
    </mxGraphModel>
  </diagram>
</mxfile>
